<svg version="1.2" xmlns="http://www.w3.org/2000/svg" viewBox="0 0 1640 664" width="1640" height="664">
	<style>
		.s0 { fill: #000000 } 
	</style>
	<path id="RAIN" class="s0" aria-label="RAIN"  d="m398.5 373h-7.1q-1.9 5.7-3.1 10.4-1.2 4.1-7.8 17.5-12.2-3.1-16.5-12.4-3.9-9.3-4.7-21.6-0.4-12.4 0-26.4 0.8-13.9-1.9-26.8-4.7-21.7-14.9-34.1-9.8-12.3-21.2-19.6-10.9-7.2-20.7-10.8-9.8-4.1-13.7-8.8 23.9-14.9 38.4-26.8 14.8-12.4 23.1-27.9 8.2-15.5 10.9-36.6 3.1-21.7 3.1-55.8-2.3-22.7-15.6-37.6-12.9-15-34.5-30.5-3.1 0-9.3 4.1-6.3 3.7-13.4 8.8-6.6 4.7-12.9 8.8-5.8 3.6-8.6 3.6-0.8 0-1.5-1-0.4-1.1-2-1.1v-12.3h-7.4q0 20.6-12.6 32.5-12.1 11.8-28.1 22.7-16.1 10.8-31.8 24.7-15.2 14-22.3 38.8-3.5 12.9-15.6 19-12.2 6.2-27.4 10.9-15.3 4.6-31.3 10.8-15.7 6.2-26.6 19.6-4.7 5.7-8.7 10.4-3.9 4.1-3.9 7.7 0 8.8-3.9 20.1-3.9 11.4-3.9 19.6 0 10.3 5.5 22.7 5.9 12.4 15.6 23.3 10.2 10.3 23.9 17.5 14.1 6.7 30.5 6.7h4q2.3 0 3.5 0 1.2-0.5 1.2-4.1 0-1.6-1.2-3.1-13.3 0-25.9-4.7-12.1-4.6-21.5-11.3-9.4-7.2-14.9-16-5.4-8.8-5.4-16.5 0-11.9 7.4-20.7 7.8-9.3 19.2-15.4 11.7-6.2 25-9.3 13.7-3.6 24.7-3.6 1.2 0 5.5 0 4.3-0.6 8.6 0 4.7 0 8.2 2 3.9 2.1 3.9 6.7 0 4.7-5.9 6.2-5.4 1.6-14 2.1-8.3 0.5-18.1 1.5-9.7 1.1-18.3 5.2-8.3 3.6-14.1 11.9-5.5 7.7-5.5 22.2 0 9.2 4.3 17.5 4.3 7.7 15.6 7.7 7.5 0 2.4-6.7l-3.5-4.6q5.4-7.8 14.5-11.4 9-4.1 18.7-4.1 8.6 0 13 2.1 4.7 2 6.2 6.2 1.6 3.6 1.6 9.2 0 5.2 0 12.4 0 16.5 0 22.7 0.4 6.2-1.6 10.4-1.9 3.6-7 8.7-4.7 4.7-14.9 18.6-4.7-4.1-18.8 5.7-13.7 9.3-29 24.8-15.2 14.9-27.4 32.5-12.1 17-13.3 28.9-1.9 20.1 0.8 29.9 2.8 9.8 2.8 10.8 0 2.1-7.9 7.3-7.4 4.6-16.8 13.4-9 8.8-16.4 22.2-7.5 12.9-7.5 31.5 0 6.1 3.2 15.4 3.1 8.8 9 17.6 6.2 8.2 15.6 14.4 9.4 5.7 21.9 5.7 24.7 0 39.6-9.3 15.2-9.3 24.6-20.1 9.4-10.8 14.5-20.1 5.5-9.3 10.6-9.3 5.1 0 22.7 5.7 17.6 5.1 41.1 5.1 17.2 0 32.5-3.1 15.2-3.1 26.6-8.8 11.7-5.6 18.4-13.4 7-8.2 7-18 0-18.6-16.8-30.5-16.8-12.4-39.1-19.6-22-7.7-43.5-10.8-21.5-3.1-30.9-3.1-20.4 0-36.4 3.1-16.1 2.6-28.2 6.2-11.7 3.1-20.4 5.6-8.2 2.6-13.3 2.6v-14.4q6.3-11.4 13-19.6 6.6-8.8 14.8-14.5 8.6-5.7 20-8.2 11.3-3.1 27.4-3.1 23.9 0 44.6 7.2 20.8 6.7 49.7 22.2 0-0.5 6.3-13.4 6.2-12.9 14.9-28.9 9-16 18.7-31 10.2-15 17.7-20.7 2.7 5.2 3.9 15 1.5 9.8 5.8 22.2 4.3 12.4 14.1 26.8 9.8 14 29 27.9 2.3 1.6 5.9 5.7 3.9 3.6 7.8 3.6 2.3 0 8.2-10.8 5.9-10.9 12.9-27.4 7.5-16.5 14.5-36.1 7.5-19.6 11.8-36.7zm-121.8 181.7q0 0.5-2.7 5.7-2.4 5.1-9.8 11.3-7 6.2-20.7 11.4-13.7 5.1-36.4 5.1-27.8 0-42.3-3.1-14.5-3.6-21.2-8.7-6.6-5.7-8.2-12.4-1.1-6.7-3.1-13.4h-8.2q0 10.3 3.5 20.1-0.4 0-1.6 1-1.1 0.5-2.3 0.5-5.1 0-12.9-3.1-7.9-3.6-16.9-9.2-8.6-5.7-17.6-13.5-9-7.7-16.8-17 0.8-0.5 5.9-3.6 5.4-3.1 16-6.2 11-3.6 27.8-6.2 17.2-2.6 41.5-2.6 15.3 0 36.8 3.1 21.5 2.6 41.5 8.3 19.9 5.7 33.6 13.9 14.1 7.8 14.1 18.6zm-81.4-503.2q0-5.1 0.4-7.2 0.8-2.1 0.8-4.1 0.4-2.6-0.4-6.2-0.8-3.6-3.1-12.4l-4.7 3.1q-2 9.8-1.6 22.7 0.4 12.4-0.4 23.7-0.8 10.9-4.7 18.6-3.5 7.3-13.7 7.3-4.7 0-7.4-5.7-2.4-5.7-3.9-14-1.2-8.2-2.8-17.5-1.1-9.8-3.5-17-4.3-13.5-19.2-23.8-14.5-10.8-34-10.8-14.1 0-26.3 5.1-11.7 4.7-20.7 13-8.6 8.2-13.7 19-4.7 10.9-4.7 23.3 0 16 3.1 32 3.6 16 11.4 28.9 8.2 12.9 21.5 21.1 13.7 7.8 34.1 7.8 3.9 0 5.1-2.1 1.5-2.1 3.1-3.6-12.5-3.6-24.3-7.8-11.7-4.1-21.1-10.8-9.4-6.7-15.3-17.5-5.9-10.9-5.9-27.9 0-12.9 3.2-21.7 3.5-9.3 7.4-14.9 4.3-6.2 8.2-8.8 4-2.6 5.1-2.6 14.1 0 20.4 15.5 6.6 15.5 12.5 34.6 5.9 18.5 14.1 34 8.6 15.5 27 15.5 10.2 0 20-6.7 9.7-7.2 17.2-19.1 7.8-11.9 12.1-27.9 4.7-16.5 4.7-35.1zm-71.2 536.7q0 2.1-6.3 9.8-6.2 7.8-17.2 16-10.6 8.3-25.1 15-14.4 6.7-30.9 6.7-15.6 0-27.4-9.3-11.7-9.8-11.7-27.3 0-25.8 13.3-39.2 13.7-14 34-27.9 16.9 19.6 30.2 29.4 13.3 9.8 22.3 15 9.4 4.6 14.1 6.7 4.7 1.5 4.7 5.1zm128.4-326.1l-2 149.6q-13.3-10.8-25.8-15.4-12.2-4.7-23.1-6.2-10.6-1.6-20.4-2.1-9.4-0.5-16.8-3.1 34-12.4 47.4-30.4 13.3-18.6 15.2-46.5 0.8-14.4 2-22.2 1.2-7.7 3.5-11.8 2.7-4.2 7-6.2 4.7-2.1 13-5.7zm42.6-131.1q0 1.6-1.2 15-0.7 13.4-3.5 30.9-2.3 17.1-7.4 34.6-5.1 17-13.7 26.9-3.5-2.6-5.1-3.7-1.6-1.5-3.1-9.8l5.5-147.6 10.1 9.3q7.5 6.7 12.9 17.1 5.5 9.8 5.5 27.3zm-40.3-53.7v166.7q-9 5.2-12.1 6.7-3.2 1.6-12.2 5.7v-30.9q0-22.2 0.4-41.9 0.4-20.1 1.6-45.4 1.2-24.2 5.5-36.6 4.3-12.9 16.8-24.3zm101.8 378.8q0 4.2-2 7.8-1.9 3.1-3.5 6.7-27.4-15.5-39.1-37.7-11.8-22.2-13.4-37.7-1.1-13.4 0-27.3 1.2-13.9 2-29.9 1.2-16.6 0.4-35.7-0.8-19.6-5.9-43.8 17.6 19.6 21.2 42.3 3.5 22.7-0.8 59.9-2.8 25.8 3.1 42.8 5.9 16.5 14.5 27.3 8.6 10.9 16 16.6 7.5 5.6 7.5 8.7zm-68.5-145.5v29.9q0 7.8-1.2 13.5-1.2 5.1-3.9 10.8-2.7 5.1-7.8 11.9-4.7 6.1-12.6 16.5v-134.7q2-2.1 3.6-4.1 1.5-2.1 3.9-2.1 5.1 0 11.3 13.9 6.7 14 6.7 44.4zm-99.8-180.6q-3.9 19.6-5.9 51.6-1.6 32-1.6 87.2v67.1q0 7.2-5.1 17-4.7 9.3-11.3 13.4 0.4-5.1 2-8.2 1.5-3.1 1.5-9.8v-109.9q0-21.7-0.8-35.7-0.4-13.9 0.8-24.7 1.6-11.4 5.9-22.2 4.7-10.9 14.5-25.8zm104.1 445.3q0 0.6-2.8 5.7-2.3 5.2-9.7 11.4-7.1 6.2-20.8 11.3-13.7 5.2-36.4 5.2h-2.7q-4.3 0.5-9 1-4.7 0-9.4 0-16.9 0-34.9-5.1-18-5.7-28.9-5.7-3.9 2-1.2 4.6 3.1 2.6 3.1 5.2 0 1.5-3.5 6.7-3.5 4.6-10.2 10.8-6.2 6.2-15.2 12.4-9 6.2-19.6 10.9-10.2 4.1-21.1 6.1-11 2.1-21.6 2.1-9 0-8.6 1.6 0.4 1 4.7 2.5 4.7 1.1 10.6 2.6 6.3 1.1 9 1.1 24.7 0 39.5-9.3 15.3-9.3 24.7-20.2 9.4-10.8 14.5-20.1 5.4-9.3 10.5-9.3 5.1 0 22.7 5.7 17.6 5.2 41.1 5.2 17.3 0 32.5-3.1 15.3-3.1 26.6-8.8 11.8-5.7 18.4-13.4 7.1-8.3 7.1-18.1 0-14.4-4.7-15.5-4.7-1-4.7 16.5zm27.8-450.5q0 4.7 0.4 17.6 0.4 12.4-0.8 26.3-1.2 13.9-5.1 26.3-3.9 12.4-13.3 16.5l5.5-90.3q0.7-10.8-2.8-20.1-3.5-9.8-9-17.1-5.1-7.7-10.9-12.3-5.5-5.2-9.4-6.7 1.5-2.6 4.3-6.8 2.7-4.1 6.2-4.1 1.2 0 6.7 4.1 5.9 3.7 11.7 11.9 6.3 8.3 11.4 22.2 5.1 13.4 5.1 32.5zm-92.8 321q0 2.6-3.9 10.3-3.5 7.8-5.5 7.8-1.2 0-10.2-5.7-8.6-6.2-25-11.4-16.1-5.6-39.5-7.7-23.1-2.6-53.3 4.6 9-6.1 18-10.3 9-4.1 16.9-6.2 8.2-2 14.1-2.5 6.2-1.1 9-1.1 4.3 0 16.8 1.6 12.9 1.5 26.2 4.6 13.7 3.1 24.7 7.2 10.9 4.2 11.7 8.8zm113.9-211.6q11.4-9.8 18.4-20.1 7.1-10.8 11-24.3 4.3-13.9 5.8-32 1.6-18 1.6-43.8 0-11.9-5.9-22.7v2q0 33.1-2.3 55.3-2.4 21.6-9.4 37.6-6.7 16-18.8 28.4-11.7 11.9-30.9 25.3 11.7 5.7 16.4 3.6 5.1-2.6 14.1-9.3zm-243.8 305.5q10.9-3.1 27.4-5.6 16.8-2.6 41.5-2.6 9.7 0 22.3 1.5 12.5 1.1 25.8 3.1 13.3 2.1 26.2 5.7 13.3 3.6 24.7 8.3-4.3-6.2-18-10.9-13.3-5.1-30.6-8.2-17.2-3.7-35.2-5.2-18-2.1-30.9-2.1-28.2 0-45.8 3.1-17.2 3.1-26.2 6.2 5.1 5.2 8.6 7.2 3.9 2.1 10.2-0.5zm52.8-415.4q-2.7 0.5-3.9 1-1.2 0.6-3.5 0.6-12.6 0-19.2-10.4-6.7-10.8-11.8-25.3-4.7-14.4-9.7-29.4-5.1-15.5-14.5-24.7 13.7 4.1 20.3 13.4 7.1 8.7 12.2 21.1 5.1 11.9 11.3 25.8 6.3 14 18.8 27.9zm221.9 352.5q0 4.1-1.9 7.7-2 3.1-3.5 6.7l-4-2q-4.3 5.6-8.2 7.2 2.8 2.6 5.9 5.7 3.1 2.5 6.3 2.5 2.3 0 8.2-10.8 5.8-10.8 12.9-27.3 7.4-16.6 14.5-36.2 7.4-19.6 11.7-36.6h-7q-2 5.7-3.2 10.3-1.1 4.1-7.8 17.6h-1.6q-0.3 0-3.9 7.7-3.5 7.7-7.8 17.5-3.9 9.3-7.8 18.1-3.6 8.3-3.9 9.3 1.1 1.5 1.1 2.6zm-271.2 2.6q14.9-11.4 47.3-11.4 24.7 0 44.7 6.7 2.7 1 5.1 2.1 2.7 1 5.8 2-20.3-9.8-35.6-13.9-14.9-4.6-35.6-4.6h-5.5q-1.6 0-5.5 1-3.5 0.5-7 1.5-3.5 0.6-5.9 0.6-1.9 0-0.4-1.1-12.9 2.6-21.5 9.8-8.6 7.3-16.1 19.1 6.3-2.6 14.5-4.6 8.6-2.1 15.7-7.2zm165.2-52.2v5.2l-2-1.6q-5.5 9.8-10.6 20.2-5.1 9.8-9 18-3.5 8.3-5.8 14-2 5.1-2 5.6l-2.7 2.6q0.4-0.5 4.7 1.6 4.3 1.5 4.7 2l5.4-10.8q6.3-12.9 15.3-28.9 9-16 18.4-31l1.2-2q0.4-0.5-1.6-5.7-1.6-5.2-1.6-5.7l-2.3 3.1v-6.7q-3.1 4.1-6.3 9.3-2.7 5.2-5.8 10.8zm-38.8-52.1q11-14.4 14.1-36.6l0.8-56.8q-2.8 2.6-3.9 8.3-0.8 5.6-1.6 19.1-1.2 21.6-9.8 39.7-8.2 17.5-21.9 28.9 3.9 1 7.8 2.1 4.3 1 8.6 2 4-3.6 5.9-6.7zm-189 183.7q-4 3.6-9.4 10.3-5.5 6.8-9.4 14.5-3.5 7.7-4.3 16-0.4 8.3 5.8 14.4 2-22.7 13.3-33.5 11.4-11.4 26.3-22.7-7.9-8.8-11-7.7-3.1 0.5-11.3 8.7zm115.8-334.9q-4.7 2.1-10.9 2.6-5.9 0-14.1 0.5-8.3 0-19.2 1.5-11 1.1-25.8 5.7 12.1-10.3 23.8-14.9 12.2-5.2 27.8-5.2 4.3 0 7.8 0.5 3.6 0.5 8.7 0.5 0.4 2.1 0.7 4.7 0.8 2 1.2 4.1zm121-121.8l-4 112.5q2.4-5.7 4-12.4 1.9-7.2 3.5-14.4l2.7-75.9q-2.7-6.7-6.2-9.8zm-216.1 8.8v-1.6q0-11.3 2-18.5 2.3-7.8 5.4-12.4 3.6-5.2 7.1-8.8 3.5-3.6 5.9-6.7v-0.5q-3.6-8.8-12.2-8.8-1.9-0.5-8.2 8.3-5.9 8.2-5.9 26.8 0 12.9 5.9 22.2zm95.1 180.1q-5.9-1.6-13.7-2.1-7.4-0.5-15.2 0.5-7.5 0.6-14.1 2.6-6.7 2.1-11 5.2 8.2-11.9 10.6-12.9 2.3-1.6 7-2.1 3.5 0 9.8-3.1h26.6q0.4 2.1 0.8 4.7 0.4 2.5-0.8 7.2zm90.8-55.2v-121.8q0 4.1-1.2 10.3-1.1 6.2-1.5 14.5-1.2 28.9-1.6 51.6-0.4 22.1-0.4 47.4-0.8 0-1.9 0.6-0.8 0 1.9 0h0.4q0-0.6 2-1.6 1.9-1 2.3-1zm33.3 99.1v-31q0-14.5-2.4-24.3-1.9-9.8-3.5-12.3v93.4q5.9-9.8 5.9-25.8zm96.7 26.3q0.4-12.9-2-26.9-0.8-3.1-1.6-6.7-0.7-4.1-1.5-6.2-0.4-2.5-0.8-1.5-0.4 0.5-0.4 7.7v9.8 18.6q0 8.8 0.8 15.5 0.8 6.2 1.6 8.3 1.1 2 2.3-1.6 1.2-4.1 1.6-17zm-169.9-313.3v3.6q0 7.3-0.8 14.5-0.8 6.7-1.9 13.4v7.2q1.9-1.5 3.9-3.1 2.3-1.5 4.3-2.5 0.4-2.6 0.4-8.8 0-5.2 0.4-7.2 0.7-2.1 0.7-4.2 0.4-2.6-0.3-6.2-0.8-3.6-3.2-12.4l-2.7 2.1q0 0-0.4 1.6 0 1-0.4 2zm-103.3 309.1q12.9 6.8 30.5 6.8h2q1.5 0 3.5-3.7 2.3-3.6 1.9-3.1v-0.5q0-0.5-3.1-0.5-2.7 0-6.3 0-3.5 0-6.6 0-2.8 0-3.1 0h-4q-2.3 0-7-1-4.7-1-8.2-1.6-3.5-0.5-4.3 0-0.8 0.6 4.7 3.6zm30.1-37.6q3.9-2.1 9.4-2.6 5.5-0.5 3.9-7.2-4.7 0-10.2 0.5-5.1 0.5-9.4 2-3.9 1.6-5.8 4.2-1.6 2.6 0.4 6.7h4.7q1.1 0 3.1-1 2.3-1.6 3.9-2.6zm-59.5-18.1l0.8-2.1v-3q0-18.1 7-30-14 8.8-14 21.2 0 7.2 6.2 13.9zm79.1-140.4q0.8-10.3-0.8-8.7-1.6 1-9.4 1h-5.5q6.7 6.2 15.7 7.7zm-68.1 10.4q5.5 3.1 9 3.1 3.9-0.6 9.4-3.1-6.3 0-11.8-0.6-5.5-0.5-10.5-2 1.9 1 3.9 2.6zm84.5-87.3h2l-0.4-3.6q-0.8-5.6-3.1-13.9-2-8.3-2-5.2 0 8.3 2.3 15.5 2.4 7.2 1.2 7.2zm39.9 359.7l7.5 5.2-0.8-1 0.4 0.5q1.6 0 1.9-1.6 0.4-1.5 0.4-1-0.7 0-3.5-0.5-2.7-0.5-5.9-1.6zm-86.1-134.1q-5.1 3.6-4.7 4.6 0.8 0.5 4.7-4.6zm83 169.8l-0.8-0.6h0.4q0 0.6 0.4 0.6zm627.1-108.9q0-3.6-1.9-5.2-2-2.1-4.7-3.6-5.5 11.9-10.6 17-5.1 4.7-8.2 4.7-7.9 0-14.5-12.9-6.3-13.5-11.4-29.5-4.7-16.5-7.8-29.9-2.7-13.9-2.7-15.5-3.9-16-6.3-24.2-2.3-8.8-4.7-17-1.9-8.3-4.3-19.1-2.3-11.4-6.6-32-9.8-48.5-21.2-94-11.3-45.9-23.9-93.9-4.3 6.2-6.2 11.9-2 5.1-3.5 10.3-1.2 4.6-3.6 9.3-2.3 4.1-7 7.7-12.9-16-36.8-30.4-23.5-15-57.5-15-24.7 0-47 11.4-22.3 11.3-39.5 30.9-16.9 19.1-27 44.9-9.8 25.3-9.8 53.7 0 28.4 9.4 49 9.4 20.2 22.7 33.1 13.3 12.9 27.8 19.1 14.8 6.1 25.4 6.1 10.2 0 17.6-1 7.8-1 14.5-3.6 6.6-2.6 13.3-6.7 7-4.7 15.3-10.8v-5.7q0-0.5-2-1.1-1.6-1-1.9-1.5-11 8.3-20.4 13.9-9.4 5.7-28.6 5.7-13.3 0-27.8-7.2-14.1-7.2-25.4-19.6-11.4-12.4-18.8-28.9-7.4-16.5-7.4-35.1 0-15.5 4.3-31 4.3-16 14.1-28.4 10.1-12.9 26.6-20.6 16.8-8.3 41.5-8.3 19.1 0 40.3 8.8 21.1 8.8 37.6 31-5.1 0.5-10.2-0.5-4.7-1.1-11-2.6-6.2-1.6-14.8-3.1-8.7-1.6-21.6-1.6-22.3 0-37.6 7.3-15.2 7.2-24.6 17.5-9.4 10.3-13.7 21.7-3.9 11.3-3.9 19.1 0 6.7 3.5 14.4 3.5 7.8 9.8 14.5 6.6 6.2 15.2 10.8 8.7 4.1 19.2 4.1 4.7 0 9.4-2-4.7-4.7-10.5-6.2-5.9-1.6-11.4-3.6-5.1-2.1-9-6.7-3.5-4.7-3.5-15 0-12.9 10.5-21.2 10.6-8.7 22.7-8.7 9.8 0 22.4 4.6 12.9 4.7 23.8 12.9 11.4 8.3 18.8 19.6 7.8 10.9 7.8 23.8 0 1.5-0.7 7.7-0.8 5.7-4.3 19.1-3.2 12.9-10.2 34.6-6.7 21.1-18.4 53.1-6.7 17.6-9.8 26.3-2.7 8.8-5.5 12.4-2.3 3.6-6.2 3.6-3.6 0-11.4 0-7.8 0-21.5 2.6-13.3 2.1-35.6 10.3-9 3.1-21.6 10.9-12.1 7.7-23.8 20.1-11.8 12.4-21.2 29.4-9 17.1-11.7 38.7-2 14.5-0.4 23.2 1.9 8.8 0.4 14-0.8 1.5-9.8 9.8-9 8.2-19.6 19.6-10.1 10.8-18.8 23.7-8.6 12.9-8.6 24.3 0 12.9 2.4 20.1 2.7 7.2 7.4 11.9 5.1 4.6 12.5 8.2 7.9 3.1 18.4 8.3h30.2v-7.7q-2 0-12.9 2-10.6 2.1-22.7 0-11.8-2-21.6-10.8-9.4-8.8-9.4-29.9 2-16.6 16.5-28.9 14.8-12.9 38.3-27.4 3.9 0 7.1 7.7 3.5 7.3 10.5 18.1 7.1 10.8 20.4 23.7 13.7 12.4 38 22.8 3.5 1.5 11.7 5.6 8.2 3.6 19.6 7.8 11.7 4.1 26.2 7.2 14.9 3.1 31.3 3.1 22.3 0 45.8-3.1 23.9-3.1 43.1-11.4 19.1-8.2 31.7-21.6 12.5-14 12.5-34.6 0-16-15.3-30.5-14.8-14.9-36.8-26.3-21.9-11.3-46.5-18-24.3-6.7-43.1-6.7h-51.7q-10.9 0-24.2 2.5-13.3 2.6-26.3 6.7-12.9 4.2-23.8 8.8-11 4.7-16.5 8.8l-4.3-4.7q5.1-12.9 15.3-25.8 10.2-13.4 24.3-23.7 14-10.3 31.7-16.5 18-6.7 38.3-6.7 16.5 0 30.5 6.2 14.1 5.6 25.1 12.9 11.3 6.7 18.8 12.9 7.8 5.7 10.9 5.7 7.5 0 11.4-7.3 4.3-7.2 10.2-21.1 6.2-14 16.8-34.1 11-20.6 31.7-47 3.9 6.2 5.1 11.4 1.2 4.6 1.6 9.3 0.4 4.6 1.1 9.8 0.8 5.2 4.3 12.4 1.2 3.1 9 14.9 8.3 11.4 17.3 24.3 9.4 12.4 17.2 22.7 7.8 9.8 8.6 9.8 0.8 0 2-1 1.5-1.6 2.3-1.6 4.3-13.9 12.9-28.9 9-15.4 18-28.9 9.4-13.9 16.1-24.7 7-10.9 7-16zm-115.4 191.9q0 8.3-6.7 18.6-6.7 10.3-20.4 19.6-13.7 8.8-34.4 15-20.7 6.2-49.3 6.2-26.2 0-53.6-9.8-27.4-9.8-50.1-23.2-22.7-14-37.2-28.4-14.5-15-14.5-25.3 0-5.2 11-10.3 11.3-5.7 28.1-9.3 16.9-4.2 36.8-6.7 20-2.6 37.2-2.6 27 0 54.4 3.6 27.4 3.6 49.3 10.8 22 7.3 35.7 17.6 13.7 10.3 13.7 24.2zm65.7-132.1q0 5.7-2.7 8.8-2.8 3.1-5.9 5.7-14.5-19.6-23.1-31.5-8.2-11.9-12.9-20.1-4.3-8.8-6.3-15.5-1.9-7.2-3.9-16.5-1.6-9.8-4.3-23.8-2.7-13.9-9-36.6-11.3-42.3-19.2-71.2-7.4-29.4-12.1-48-4.3-18.6-6.3-27.4-1.5-9.3-1.5-11.3 0-1.1 2.7-5.2 2.7-4.1 5.1-18 1.9 2.5 8.2 25.2 6.3 22.8 12.9 50.6 7.1 27.4 12.6 51.6 5.8 23.8 7 28.4 5.9 24.3 9.8 43.4 4.3 18.5 8.2 37.1 4.7 22.2 11.4 35.6 7 13.4 13.3 21.2 6.6 7.2 10.9 10.8 4.7 3.6 5.1 6.7zm-162.4-109.4h83.3v18.1q-9.7 15-15.2 24.2-5.5 8.8-8.6 14-2.8 5.1-4.3 6.7-1.6 1.5-4 1.5-0.7 0-3.9-2-3.1-2.1-10.5-5.2-7.1-3.6-19.6-7.7-12.1-4.7-31.3-8.8 1.2-4.7 3.1-10.8 2.4-6.8 4.3-12.9 2-6.2 3.9-10.9 2-4.6 2.8-6.2zm54-224.5q0 4.2-2.4 9.3-2.3 4.7-6.2 14-7.5-17.1-19.2-28.4-11.7-11.9-25.1-19.1-13.3-7.2-27-10.3-13.3-3.1-23.8-3.1-5.9 0-14.9 2-9 1.6-18 4.2-8.6 2-15.7 4.6-6.6 2.1-8.6 3.1 18.8-16.5 39.6-23.7 20.7-7.3 34.4-7.3 18.4 0 34 7.8 16.1 7.2 27.8 17 11.8 9.3 18.4 18.1 6.7 8.7 6.7 11.8zm15.6 169.8q-17.2 0-30.1-1-12.5-1-22.7-1 0-1.6-1.2-2.6-0.8-1.1-0.8-2.1 0-1.5 4.4-12.4 4.3-10.8 9.7-24.7 5.9-14 10.6-27.9 5.1-14.5 5.9-22.2 1.9 4.6 5.5 17.5 3.5 12.9 7.4 27.9 3.9 14.5 7 28.4 3.2 13.4 4.3 20.1zm-40.7 162.6q-2.3 8.2-4.7 10.3-1.9 2.1-4.3 7.7-10.9-7.7-21.1-13.4-9.8-6.2-20-10.3-9.7-4.1-21.1-6.2-11.3-2.6-25.4-2.6-11.8 0-21.6 1.6-9.8 1.5-18.8 5.1-9 3.1-18.3 8.3-9.4 4.6-20.8 10.8 11.7-11.8 21.9-19.1 10.2-7.7 20.8-11.8 10.9-4.2 23.5-5.7 12.5-1.6 28.1-1.6 17.6 0 29.8 2.6 12.1 2.6 21.1 6.7 9 4.2 16.1 8.8 7.4 4.7 14.8 8.8zm-90.8 213.1q11.8 4.1 26.3 7.2 14.8 3.1 31.3 3.1 22.3 0 45.8-3.1 23.8-3.1 43-11.3 19.2-8.3 31.7-21.7 12.5-13.9 12.5-34.6 0-10.3-5.8-19.6-0.4 28.9-19.2 46.5-18.4 17.5-45.4 25.8-0.8-1.1-1.2 0h-0.4q-1.5 0.5-3.1 1-1.2 0.5-2.7 1-16.1 5.2-35.3 6.7-18.8 1.6-35.6 1.6-18.4 0-34-3.1-15.3-3.6-27.4-7.7 4.3 2 9 4.1 5.1 2 10.5 4.1zm-81-97q7.8-3.6 20-6.7 12.1-3.6 25.8-5.7 14.1-2.6 28.6-4.1 14.9-1.6 27.8-1.6 27 0 54.4 3.6 27.4 3.7 49.3 10.9 3.9 1 7.8 2.6 3.9 1.5 7.8 3.1-8.2-6.8-22.7-11.9-14.4-5.7-32.8-8.8-18-3.6-38.8-5.1-20.3-2.1-40.7-2.1-16 0-34 1.5-18 1.1-33.7 3.7-15.3 2-25.4 5.1-10.2 2.6-10.2 5.7 0 7.2 8.2 15.5 1.6-1.1 3.5-2.6 2-1.6 5.1-3.1zm321-93.9q0 6.7-5.5 13.9-5.5 7.2-8.2 17h-3.6q7.9 10.4 8.7 10.4 0.7 0 1.9-1.1 1.6-1.5 2.4-1.5 4.3-14 12.9-28.9 9-15.5 18-28.9 9.4-14 16-24.8 7.1-10.8 7.1-16 0-7.7-2.4-7.7-2.3 0-5.5 3.6-3.1 3.1-5.8 7.7-2.8 4.1-3.5 4.7 0.3-0.6-4.7 5.1-4.7 5.7-11 14-6.3 8.2-11.7 17.5-5.1 8.8-5.1 15zm-303.4-274.6q0-23.2 9.8-45.9 10.2-23.2 35.2-34.1 9.8-5.1 21.6-7.2 12.1-2.6 24.6-2.6h6.3q5.5 0 3.9-0.5-1.6-1-5.9-2.1-4.3-1-9.8-2-5-1-7-1-5.9 0-13.3 2-7.1 1.6-13.7 3.6-6.7 2.1-11.8 4.2-4.6 2-5.8 2.5 6.2-5.1 13.3-10.3-15.3 3.6-25.5 11.4-10.1 7.2-16.4 17.5-5.9 9.8-8.6 21.2-2.7 11.3-2.7 22.7 0 16 6.2 29.4-0.4-2.6-0.4-8.8zm171.9 303.5q4.3-7.3 10.1-21.2 6.3-13.9 16.9-34 3.5-6.2 5.8-10.4 2.4-4.1 3.9-8.2 1.6-4.7 2.4-10.3 0.8-6.2 0.8-16-6.7 8.7-10.2 16-3.5 7.2-5.5 8.7l-1.5 1.1q-4 2.5-7.5 8.7-3.5 6.2-6.2 13.4-2.8 6.8-4.7 12.9-2 5.7-2.4 7.3-5.5 11.8-9.8 19.6-3.9 7.2-10.5 10.3 4.7 1 10.1 4.1 5.9 2.6 8.3-2zm-135.1-23.8q17.6-6.7 38.4-6.7 5.5 0 14.8 0.5 9.4 0.6 13.7 4.7-6.6-6.7-20.3-9.8-13.3-3.1-23.9-3.1-28.6 0-50.9 12.4-22.3 12.4-36 28.9 7.1-2.6 15.7-4.7 9-2 16.8-6.2 7.8-4.1 15.3-8.2 7.4-4.7 16.4-7.8zm119.4-294.1q0 4.1-5.5 16-16.8-15.5-26.2-24.8-9-9.3-17.2-13.9-7.9-5.2-18-6.7-10.2-1.6-28.6-1.6 5.9-1 9.4-1.5 3.5-1.1 5.9-1.6 2.7-0.5 5.4-0.5 2.8-0.5 7.5-0.5 10.5 0 22.3 3.6 11.7 3.1 21.9 8.8 10.2 5.1 16.4 11.3 6.7 5.7 6.7 11.4zm48.9 144.5q-4.3 0.5-8.2 0.5-3.5 0-6.7 0h-13.7q-7.4 0-18.3 0-11-0.5-29.4-0.5 1.2-3.1 2-7.3 1.1-4.6 2.3-7.2 6.7 0.5 8.2 0 2-0.5 5.1-1 3.5-0.5 12.1-0.5 8.7 0 29 1.5 9.4 0.5 12.5 3.1 3.2 2.6 5.1 11.4zm-66.9 41.3q1.2-2.6 1.6-4.2 0.7-1.5 1.1-2h53.3q1.1-1.6 2.3-3.1 1.2-2.1 2.4-4.2v-0.5h-68.5q-5.1 15-0.8 19.6 4.7 4.2 8.6-5.6zm-213.3 214.1q-5.1 5.7-10.2 11.9-4.7 5.7-9 12.4-3.9 6.2-6.7 12.9-2.7 6.2 2.4 11.8 0.4-7.7 5.1-14.9 4.7-7.2 11.3-13.4 7.1-6.2 14.5-11.4 7.4-5.1 13.7-9.3-6.3-10.3-10.2-9.3-3.5 1.1-10.9 9.3zm121.3-290q14.5 6.2 25.5 6.2 19.5 0 32-4.7 7.1-2.5 9.4-6.1 2.4-4.2 5.1-11.9-9 6.7-15.2 8.2-6.3 1.6-18 3.7-6.3 1-13.3 2-7.1 1-15.7 1-9.4 0-20-3.6 4.7 2.6 10.2 5.2zm14.1-97q11-8.8 22.7-8.8 2.7 0 10.6 0.5 8.2 0 11.7 4.1-7-7.2-19.6-9.8-12.1-2.5-18.4-2.5-8.6 0-16 5.1-7.4 4.7-7.4 11.9 0 6.7 1.5 8.2 2 1.6 4.3 0 2.8-1.5 5.5-4.1 3.1-3.1 5.1-4.6zm109.6 68.1l5.5-13.9q-2.4-11.9-5.1-21.2-7.1 19.6-13.7 36.1-2.8 6.7-1.2 7.8 1.6 0.5 6.7 0.5 3.9 0 5.1-2.1 1.1-2 2.7-7.2zm-232.1 415.9h30.1v-7.7q-1.1 0-5.8 0.5-4.7 0.5-11 1.1-5.9 0-12.9 0-7.1 0-13.3-1.6h-3.2q2.8 0 7.5 3.1 4.7 2.6 8.6 4.6zm117.8-433.4q9.4 4.1 19.2 4.1 5.9 0 7-1.1 1.6-1 0.4-2.5-1.2-1.6-3.9-2.6-2.3-1.6-4.7-2.1l-4.7-1q-2.3-0.5-5.5 0.5-2.7 1-4.3 1-2.7 0-5.5-0.5-2.7-0.5-3.9-0.5-1.1 0 0 1 1.2 1.1 5.9 3.7zm220 30.4q-1.2-5.7-2.8-13.4-1.5-8.3-3.5-18.6-5.5-26.3-13.3-58.8-7.8-32.5-14.9-61.4-2.3-9.8-5.1-20.7-2.7-10.8-5.8-22.7 4.3 16.5 7.4 31 3.5 13.9 7.4 30.4v-0.5q1.2 4.7 2 9.8 1.2 5.2 2.4 9.8l3.5 15.5q2.7 11.9 5.5 22.7 2.7 10.8 4.7 21.2 3.1 16 5 26.3 2.4 9.8 4 17 1.5 7.2 3.1 12.9 1.6 5.7 3.5 13.4v1.1q-0.8-3.6-1.6-7.3-0.7-3.6-1.5-7.7zm19.5 81l-0.7-5.1q-2.8-14.5-4.3-20.7-1.6-6.2-4.3-14.4 1.1 5.6 3.5 17 2.7 11.4 5.8 23.2zm-69.2-294.1q0.7 4.1 1.5 5.6-0.4-1.5-0.8-3.1-0.3-1.5-0.7-2.5zm-1.6-6.7q0.4 2 0.8 3.6 0.4 1.5 0.8 3.1-0.4-1.6-0.8-3.1-0.4-2.1-0.8-3.6zm-180.8 597.6l-3.6-1.6zm184.8-582.1q1.6 4.6 1.9 8.8-0.3-2.1-0.7-4.2-0.4-2-1.2-4.6zm52.1 223.4l-0.4-0.5q0.7 0.5 0.7 2.1 0 1.5 0.4 2.1-0.4-0.6-0.4-1.1 0-1-0.3-1.5-0.4-1.1-1.2-3.6-0.4-3.1 1.2 2.5zm400.1-261.1h-6.6q-17.7 10.3-28.6 17.6-10.6 7.2-18 14.9-7.1 7.8-12.9 18.1-5.5 10.3-12.6 26.3-1.9 4.7-11.7 8.8-9.4 3.6-22.3 9.8-12.9 5.7-26.6 15.5-13.7 9.3-24.3 25.3-3.5 6.2-4.7 11.3-1.2 5.2-3.5 9.3-2 3.6-6.7 5.7-4.3 2-13.7 2-5.5 0-12.9 1.1-7 1-16 5.1-31.4 15.5-48.2 38.7-16.4 22.7-16.4 56.3 0 18.1 5.5 32 5.4 13.9 14.8 24.8 9.4 10.3 21.6 18 12.5 7.8 26.6 14h16q-1.9-2.1-13.7-6.8-11.3-4.6-24.2-12.9-13-8.7-23.5-21.1-10.2-12.9-10.2-31 0-13.4 6.6-24.8 6.7-11.3 17.7-20.1 10.9-8.8 25-13.4 14.1-5.2 29-5.2 14.8 0 19.9 1.6 5.5 1.5 5.5 12.4 0 2-1.2 2.6-0.7 0.5-0.7 3.1-12.2 1.5-25.1 3.6-12.5 2-23.1 6.2-10.2 4.1-16.8 11.8-6.7 7.3-6.7 19.6 0 7.8 3.6 15.5 3.5 7.2 8.6 12.9 5.4 5.7 11.3 9.3 5.9 3.6 10.6 3.6 5.5 0 4.7-1.5-0.4-2.1-3.5-4.7-2.8-2.5-6.3-5.6-3.5-3.1-3.5-5.2 0-5.2 5.8-8.3 6.3-3.6 13.7-5.6 7.5-2.1 14.1-3.1 6.7-1.1 7.5-1.1 0.8 0 4.7 5.7 4.3 5.2 4.3 15.5v86.2q-12.6 9.8-16.1 18-3.1 8.3-5.8 13.5-6.3-4.2-12.6-14.5-5.8-10.3-13.7-20.6-7.8-10.4-19.1-18.1-11-8.3-27.8-8.3-16.9 0-29.4 8.3-12.1 7.7-20.3 20.6-8.3 12.9-12.2 28.9-3.9 15.5-3.9 30.5 0 24.2 10.6 48.5 10.5 24.3 29.3 43.9 18.8 19.6 44.3 32 25.8 12.3 56.3 12.3 35.2 0 65.8-5.6 30.9-6.2 53.6-17.6 23.1-11.3 36.4-27.8 13.3-16.6 13.3-38.2 0-16.5-11-27.9-10.5-11.9-21.1-11.9-4.7 0-5.1 2.6 0 2.1-1.9 6.2 10.9 6.2 20.7 12.4 10.2 5.7 10.2 21.1 0 18.1-14.9 32.6-14.5 13.9-36.4 23.7-21.5 9.3-46.6 14.4-24.6 5.2-44.6 5.2-43.4 0-70.4-12.9-27-12.9-41.9-28.9-14.5-16-19.6-29.9-5.1-14-5.1-16 0-9.3 7.5-18.1 7.4-9.3 17.2-16 10.2-6.7 20.3-10.8 10.2-4.1 15.3-4.1 5.5 0 18 2.5 12.9 2.1 27.8 5.2 15.3 2.6 30.1 5.2 14.9 2 25.1 2 28.2 0 51.7-9.8 23.4-9.8 40.7-27.9 17.2-18 27-43.3 10.1-25.8 10.9-57.3 0.8-36.1 0.8-66 0.4-30 0-58.4 0-28.3-0.8-58.3-0.4-29.9-1.5-66-0.4-10.9-0.4-18.1 0-7.7 0-11.3 0-6.8 0.7-9.3 0.8-3.1 2.8-5.7 1.9-3.1 5.1-8.3 3.1-5.1 7.8-16.5zm-92.8 31q0-11.4-1.9-17.6-2-6.2-3.5-13.4h-5.9q-0.8 7.2 0.8 18.6 1.9 11.3 2.3 22.2 0.8 10.8-1.5 18.6-2 7.7-10.2 7.7-11 0-14.9-11.9-3.9-12.3-9.4-26.8-5.5-14.4-17.2-26.3-11.4-12.4-37.6-12.4-18.8 0-33.3 6.7-14.4 6.2-24.2 16-9.8 9.8-14.9 22.2-5.1 11.9-5.1 23.2 0 8.3 4.3 21.7 4.3 12.9 13.3 25.3 9.4 11.8 23.1 20.6 13.7 8.8 32.5 8.8 6.7 0 10.2 0.5 3.5 0 5.9-0.5 2.7-1 5-3.1 2.8-2.1 7.9-7.2-5.9-3.1-13.7-1.1-7.9 2.1-17.6 2.1-9.8-0.5-21.6-6.2-11.7-6.2-25.4-24.8-5.1-6.7-9.8-19.1-4.3-12.3-4.3-17 0-6.2 2.7-13.9 2.8-7.8 7.1-14.5 4.7-6.7 10.2-11.3 5.8-4.7 12.1-4.7 13.7 0 19.6 13.5 5.8 12.9 11.7 28.9 6.3 15.4 16.4 28.9 10.2 12.9 32.1 12.9 25.5 0 40-17.6 14.8-17.5 14.8-49zm12.2 368.4q0 12.4-7.1 20.7-7 7.7-17.2 12.4-10.2 4.6-21.5 6.7-11 2.1-19.6 2.1-7.4 0-12.1-1.1-4.3-1.5-7.1-3.1-2.7-1.5-4.7-3.1-1.9-1.5-4.7-2h5.5v-10.4q9.4 6.7 13.7 5.7 4.7-1-3.5-7.7 16.8-4.2 28.6-14 12.1-9.8 19.5-21.6 7.5-12.4 11-25.3 3.5-13.4 3.5-24.3 0-14.4 0-26.8 0.4-12.9 0.4-24.3 0-35.6-1.2-67.1-0.7-31.4-1.1-73.2-1.2-16 0.4-24.3 1.9-8.8 15.2-18.6 0.4 33.1 0.8 60.9 0.4 27.9 0.8 54.2 0.8 25.8 1.2 51.6 0.3 25.3 0.3 53.2 0 35.1-1.1 79.4zm96.3-378.7h-6.7q-2.7 2-5.5 3.6-2.7 1.5-5.1 3.1l-2.7 3.6q-1.2 2-2 4.1-0.3 1.6-0.3 9.3v10.3q0 2.6 0 6.2 0 3.6 0.3 7.8 1.6 44.9 2.4 80.5 0.8 35.6 0.8 71.2 0 22.2-0.4 46.4-0.4 23.8-1.2 51.6v-0.5q-0.4 34.6-11.3 62.5-10.6 27.8-29.4 47.9-18.8 19.7-44.2 30.5-25.5 10.3-55.2 10.3-9.4 0-23.5-2-13.7-2.6-28.6-5.2-14.5-3.1-27.8-5.2-13.3-2.5-21.1-2.5-1.2 0-9.4 2-8.2 2.1-17.2 6.7-9 4.2-16.5 10.9-7.4 6.7-7.4 16.5 0 1 1.2 5.7 1.5 4.1 4.7 10.8 1.9-9.3 9.8-17.6 8.2-8.2 17.6-13.9 9.8-6.2 18.8-9.8 9.4-3.6 14.1-3.6 5.4 0 18 2.6 12.9 2 27.8 5.1 15.2 2.6 30.1 5.2 14.9 2.1 25 2.1 28.6 0 51.3-9.8 5.9-2.1 8.6-5.2 2.8-3.6 5.1-6.7 2.4-3.6 5.1-5.7 2.7-2.6 8.6-2.6 4.3 0 7.1-1.5 2.7-2.1 6.6-6.2 17.6-18.6 27.4-43.4 10.2-25.3 10.6-57.2 0.8-36.2 1.2-66.1 0.3-29.9 0-58.3 0-28.4-0.8-58.3-0.8-30-2-66.1-0.4-10.8-0.4-18.1 0-7.7 0-11.3 0-6.7 0.8-9.3 0.8-3.1 2.7-5.7 2-3.1 5.1-8.2 3.2-5.2 7.9-16.5zm-72.4 36.1v310.1q0 6.7-1.2 17.1-0.8 10.3-10.6 25.3-0.4-35.1-0.8-65.1-0.4-30.4-0.8-58.3 0-28.4-0.3-55.7 0-27.4 0-56.8 0-19.6 0-40.8 0.3-21.1 0.7-44.9 0-8.2 4.7-17.5 4.7-9.3 8.3-13.4zm-80.3 69.7q-1.2 4.1-4.7 13.9-3.1 9.3-3.1 15-0.4 27.3 0 49.5 0.8 21.7 1.2 42.8 0.7 21.2 1.1 43.4 0.8 21.7 0 49-0.4 16-1.9 25.3-1.6 9.3-3.9 15.5-2.4 5.6-5.5 9.3-3.1 3.6-6.7 7.7v-216.7q0-2.6 0.8-8.8 0.8-6.2 3.1-14 2.8-7.7 7.1-15.9 4.7-8.3 12.5-16zm-91.2 470.6q25.8 12.4 56.4 12.4 35.2 0 65.7-5.7 31-6.2 53.7-17.5 23-11.4 36.4-27.9 13.3-16.5 13.3-38.2 0-12.4-5.9-21.7v1.1q0 6.2-1.2 11.8-1.2 5.7-1.2 11.4 0 13.4-8.6 24.8-8.6 11.3-22.3 20.6-13.7 8.8-31.3 15.5-17.6 6.2-35.6 9.8-19.6 4.1-38.8 6.2-18.7 2-39.9 2-24.6 0-48.1-8.7 1.5 1 3.5 2 2 1.1 3.9 2.1zm17.2-165.1q-30.5-2.6-45.4-1.1-14.4 1.6-22.3 5.7-7.8 4.1-13.7 10.8-5.8 6.2-19.2 13.5 4-22.2 20-34.6 16.1-12.4 34.5-12.4 3.5 0 14.8 3.1 11.8 3.1 31.3 15zm72.4-344.3h-11.7q-17.2-13.9-25-25.2-7.5-11.9-11-21.2-3.1-9.8-4.7-17-1.6-7.8-6.7-13.4h8.7q9 8.2 13.3 16 4.7 7.2 9 16 4.3 8.2 10.1 19 5.9 10.9 18 25.8zm43.5 316.9q5.5-8.8 5.5-22.2 0-13.4 0-23.7-4.3 19.1-17.6 39.2-13.3 20.1-36.1 29.9v0.5q0 1.1 4.7 0.6 5.1-1.1 11.4-2.6 6.3-1.6 11.3-2.6 5.5-1.5 6.7-2.1 8.2-7.7 14.1-17zm-79.5-209l2 12.4q-12.5 0.5-21.1 0.5-8.3-0.5-16.1 0.5-7.8 0.5-17.6 3.1-9.4 2.1-24.3 8.3 16.5-12.9 26.6-17.1 10.2-4.6 17.7-5.1 7.8-1 14.8-0.5 7.5 0.5 18-2.1zm-59.1-162.6q-5.8 5.7-9 12.4-2.7 6.7-7 12.4 0 1.6 3.5 10.9l2.4 6.1q-1.2-2.5 0.7-7.2 2-5.1 5.1-10.8 3.2-5.7 7.1-10.3 3.9-5.2 7-7.8 1.6-1 4.3-2.6 3.2-1.5 3.2-2.5-3.2-7.8-7.9-6.2-4.3 1-9.4 5.6zm62.7 231.8v10.3q-2.8 0-11 0-8.2 0-16.8 0.5-8.2 0.5-14.5 2.1-6.3 1.5-5.5 5.1-1.2-4.6 5.1-8.2 6.3-4.2 14.1-6.7 7.8-3.1 13.7-4.2 6.2-1.5 4.7-1.5 5.1 0 7.4 1.5 2.4 1.1 2.8 1.1zm-81.5 17.5v-2.1q0-11.8 5.9-24.7 6.3-12.9 16.1-15-7.1 1.6-13.3 6.2-5.9 4.6-10.2 11.3-4.3 6.2-6.7 12.9-2.3 6.8-2.3 11.9 0 10.9 5.9 20.1 0-10.8 4.6-20.6zm70.5 28.9l3.9-1h-5.1v-10.4q-4.3 0.6-9.4 1.1-5.1 0-9 1l-1.5 1.6q1.1-1.6 0.4-1.1-0.4 0-1.2 0-0.8 0-1.2 0.5 2.7 1.1 8.2 6.2 5.9 4.7 14.9 2.1zm99-280.2q0 13.4-2.3 25.3l0.4 9.3q0-2.6 3.5-8.3 3.5-5.7 4.3-7.2-0.4-9.8-2-15.5-1.5-5.7-3.5-13.9h-1.2q0.4 0 0.4 5.1 0.4 4.7 0.4 5.2zm-129.9 115.1q4.3 2.5 8.2 4.6 4.3 1.6 9.4 1.6h3.9 3.5q6.3 0 9-2.6 3.2-2.6-5.1-2.6h-12.1q-1.9 0-5.5 0-3.5-0.5-6.6-1-2.8-0.6-4.7-0.6-1.6 0 0 0.6zm11.3 229.1h16.1q-0.8 0-4.7-2.1-3.9-2.6-9-4.6l-2.4-1h-16q3.9 2 7.8 4.1 3.9 1.5 8.2 3.6zm-1.9-36.6q5.5 3.6 10.5 3.6 5.1 0 5.9-1.1 0.8-1-0.8-2.5-1.5-1.6-4.3-3.1-2.7-1.6-3.9-2.1l-1.2-0.5q-3.5 0-5.1 1-1.5 0.5-6.2 0.5h-0.8q1.2 0 3.1 2.1 2 1.5 2.8 2.1zm46.2-227.1l0.4-0.5q1.1 0 0.3-0.5-0.7-0.6-1.5-0.6-1.6 0-1.2 0.6 0.8 0 2 1zm-18.8 187.8h-0.4v1.1q0-0.6 0-0.6 0.4-0.5 0.4-0.5zm558.3 166.7l66.5-109.9-6.6-5.7h-5.5q-0.4 0-2.4 3.6-1.9 3.1-5 7.8-2.8 4.1-6.3 8.7-3.1 4.7-6.3 7.8-9-8.3-12.5-15.5-3.1-7.7-4.7-26.8 0-30.5 0.4-55.2 0.4-24.8 0.4-48.6 0.4-23.7 0.8-48.5 0.8-24.7 1.5-55.2 0.4-15.5 3.2-27.9 3.1-12.3 7-23.7 4.3-11.9 9.4-23.2 5.1-11.9 9.8-25.8-1.6-0.5-2.7-1.6-1.2-1-3.2-2-7.8 9.8-11.3 17-3.5 7.2-5.5 12.4-2 5.1-3.5 8.8-1.6 3.6-5.9 6.7-9-12.4-15.3-19.1-5.8-6.7-12.1-12.4-5.9-6.2-13.3-13.9-7-7.8-18.8-21.7l-54.4 40.2q-1.6-4.1-1.6-8.7 0.4-4.7 0.4-9.8 0-5.2-0.8-10.9-0.3-5.7-3.9-10.8-4.3 3.1-5.1 8.8-0.7 5.6-0.7 12.3 0 6.7-0.4 14 0 7.2-2 13.9-1.9 5.2-7.4 10.8-5.1 5.2-11.8 10.9-6.2 5.1-13.3 10.3-6.6 4.6-11.3 8.8-16.5 14.4-27 25.8-10.2 11.3-16.5 22.7-6.2 10.8-8.6 22.7-2.3 11.9-2.3 26.8-20.4 0-40.3 5.2-19.6 4.6-35.3 16-15.2 10.8-24.6 28.9-9.4 18-9.4 44.4 0 24.2 7 34.5 7.5 10.4 11 10.4 1.9 0 4.7-1.6-5.1-13.9-3.9-27.9 1.5-14.4 9.4-25.8 8.2-11.3 22.7-18.5 14.4-7.3 35.2-7.3 4.3 0 6.6 0 2.4 0 4.3 0.6 2.4 0 5.1 1.5 2.8 1 7.5 4.1v6.2q-12.2 6.2-23.9 10.9-11.4 4.1-20.7 10.3-9.1 6.2-14.5 16-5.5 9.8-5.5 26.3 0 3.6 1.6 13.4 1.9 9.8 10.5 17.1h8.2q-0.7-5.7-0.7-12.4 0.4-6.7 3.1-12.4 3.1-5.7 9.4-9.3 6.2-3.6 17.6-3.6 8.2 0 11.3 2 3.6 1.6 3.6 11.9 0 4.7-0.4 16 0 11.4-2.8 23.7-2.7 11.9-9 21.2-6.2 9.3-18.4 9.3-3.1 0-8.6-5.2-5.1-5.1-12.9-11.3-7.4-6.7-17.6-11.9-10.2-5.1-23.1-5.1-16.4 0-30.1 7.7-13.3 7.2-22.7 19.6-9.4 12.4-14.9 28.4-5.1 15.5-5.1 32.5 0 29.4 9.8 49 10.2 19.6 21.9 32.5 11.8 12.9 21.5 20.2 10.2 6.7 10.2 10.3 0 1-2.3 5.1-2.4 3.7-5.1 8.8-2.8 4.7-5.5 9.3-2.4 4.1-3.1 5.7v5.7q5.8-4.7 9.4-9.8 3.5-5.7 5.8-9.8 2.4-4.7 3.9-7.3 2-3.1 4.4-3.1 8.6 0 14.4 5.7 5.9 5.7 16.1 12.4 10.5 6.7 28.6 12.4 18.3 5.7 51.2 5.7 14.1 0 34.5-1.6 20.7-1.5 39.5-7.7 18.8-6.2 32.1-18.6 13.7-12.4 13.7-34.6 0-18.6-9.4-29.9-9-11.4-22.7-17.6-13.7-6.2-29.7-8.2-15.7-2.6-29.4-2.6-20 0-36 4.6-15.7 4.2-34.8 12.4-24.3 10.3-37.2 19.6-12.6 8.8-18.8 15.5-6.3 6.7-8.6 10.9-2 3.6-5.5 3.6-4.7 0-12.5-6.2-7.9-6.2-15.3-15.5-7.4-9.8-12.9-21.2-5.1-11.8-5.1-22.2 0-22.7 16.4-35 16.5-12.9 41.5-12.9 14.9 0 25.9 3.6 11.3 3.6 21.5 7.7 10.2 4.1 20.7 7.7 11 3.7 25.1 3.7 18.4 0 35.2-4.2 16.8-4.6 30.1-14.4 13.4-10.3 22-25.8 8.6-16 10.5-38.7 2.4-24.8 1.2-47-0.8-22.7-0.4-39.7 0.8-17.6 5.5-27.4 5.1-10.3 19.2-10.3 10.5 0 15.6 3.6 5.1 3.1 7.1 8.8 1.9 5.1 1.5 11.9 0 6.7 0 13.4 0 23.2 0 41.3 0 17.5-1.5 41.8-0.4 7.7-4.7 17.5-4.3 9.3-10.2 19.1-5.9 9.8-12.5 19.1-6.3 9.3-11.4 17v5.7q5.1 2.1 10.2-3.1 5.1-5.7 10.2-13.9 5.1-8.8 10.9-18.1 5.9-9.3 13-15.5 6.2 6.2 12.1 15.5 5.9 8.8 11.7 18.1 6.3 8.7 12.2 16.5 6.2 7.7 12.5 10.8zm-171.1-414.9q0-12.4-0.7-25.8-0.8-13.9-12.6-21.2-1.9 4.7-0.7 18.6 1.5 13.4 1.5 28.4 0 14.5-3.5 25.8-3.1 11.4-14.5 11.4-8.6 0-14.1-12.9-5.1-13.5-12.1-29.5-6.7-16-17.6-28.9-10.6-13.4-29.8-13.4-16.4 0-30.5 7.8-14.1 7.7-24.3 20.6-9.8 12.9-15.6 28.9-5.5 16-5.5 33 0 12.4 5.5 25.8 5.5 12.9 15.6 23.8 10.2 10.8 23.9 18 14.1 7.3 31.3 7.3 3.5 0 10.2-0.5 7-1.1 13.3-3.1 6.7-2.1 11.4-5.2 4.7-3.1 4.7-7.7 0-4.7-2.8-4.7-2.3 0-7.4 2.1-4.7 1.5-11.8 4.1-6.6 2.1-15.6 2.1-27.8 0-45.4-17.6-17.2-18-17.2-48 0-5.1 0.7-12.9 1.2-7.7 3.6-14.4 2.3-7.2 6.2-11.9 3.9-5.2 9.4-5.2 5.5 0 7.8 5.2 2.4 4.7 4 12.4 1.9 7.7 4.3 17.5 2.7 9.8 8.2 19.1 5.9 10.4 19.6 21.2 13.7 10.8 34.4 10.8 15.3 0 27.4-7.2 12.5-7.7 21.1-19.1 8.6-11.9 12.9-26.3 4.7-14.5 4.7-28.4zm84.6 491.3q0 15-9.4 24.3-9.4 9.2-25.4 14.4-16.1 4.6-37.2 6.7-20.8 1.6-43.5 1.6-19.9 0-33.6-3.1-13.7-3.6-23.9-7.8-9.8-4.6-17.6-9.3-7.5-4.6-15.7-7.2 6.7-7.2 20-17 13.7-10.3 29.3-19.1 16.1-8.8 32.1-15 16.5-6.2 28.6-6.2h50.1q7.4 0 15.7 3.1 8.2 2.6 14.8 7.8 7.1 4.6 11.4 11.8 4.3 6.7 4.3 15zm-23.9-460.8v124.8q0 28.4-0.4 58.4 0 29.9-1.5 66.5-0.8 19.6-4.3 39.8-3.6 20.1-11.4 36.6-7.8 16-21.1 26.3-13.3 10.3-33.7 10.3-12.1 0-19.6-1-7.4-1.5-12.5-4.6-4.7-3.6-8.6-8.8-3.9-5.7-9-14.5 19.2-3 37.2-9.2 18.4-6.2 32.5-15 14.1-9.3 23.1-21.2 9-12.4 9.4-27.8 1.1-33.6 1.1-59.9 0-26.8-0.8-52.6-0.3-26.4-0.3-53.2 0-13.4 0.3-28.4 0.4-15.5 1.2-32 0.4-7.2 5.9-17 5.5-10.3 12.5-17.5zm113.9 346.7q0 4.2-1.9 6.8-2 2.5-5.5 9.2-20-21.6-28.6-38.1-8.6-17.1-10.6-30-1.9-13.4-0.4-24.2 1.6-10.9 1.6-21.7 0-29.9 0.4-54.7 0.4-24.8 0.4-48.5v-102.7q-2.4-20.1-2.7-27.4-0.4-7.7-3.6-12.3-3.1-4.7-10.9-10.4-7.5-6.2-24.3-23.2l4.7-3.1q4.7-2.6 4.7-2.6 1.6 0 9.4 5.2 8.2 4.6 16.8 13.9 9 9.3 15.7 22.7 7 13.4 6.2 30.5-1.5 36.6-1.9 66.6-0.4 29.9-0.4 58.3 0 28.3-0.4 58.3-0.4 29.4-0.8 66 2 15.5 7.1 24.8 5.1 8.8 10.5 15 5.9 5.7 10.2 10.3 4.3 4.1 4.3 11.3zm-57.5-263.7q-0.8 5.7-3.9 9.3-3.2 3.6-7.5 5.7-3.9 1.6-8.6 2.6-4.3 0.5-7 0.5-8.6 0-11.4-2.6-2.3-2.6-6.2-4.6l3.9-112.5q5.8 2 12.9 8.7 7 6.8 12.9 14.5 6.3 7.2 10.2 15 4.3 7.2 4.7 10.8l1.9 25.8q0.4 3.6 0.4 6.2 0.4 2.1 0.4 3.6 0 2.6-0.8 5.2-0.7 2.6-1.9 11.8zm-124.5-28.3v54.7q0 19.1 0 36.6 0 17.5-0.4 35.6 0 18.1-0.4 37.7-0.4 19.1-1.5 41.3-0.4 8.7-4.3 18.5-3.6 9.3-11.4 14v-184.8q0-2.6 2.4-15.5 2.3-12.9 15.6-38.1zm59.1 329.2q9.8-7.2 16.8-16v-4.1q0-2.1 2-6.2 2.3-4.7 5.1-10.3 3.1-6.2 5.5-12.9 2.7-7.3 3.5-14.5 1.6-18.6 1.2-35.6-0.4-17.5-0.8-32.5 0-15 0.8-26.8 1.1-11.9 5.1-19.1 3.9-9.3 17.6-10.4-0.8-3.1-3.9-5.1-3.2-2.6-10.2-2.6-10.2 0-12.9 9.8-2.4 9.8-2.4 25.8 0 4.7 0 9.8 0.4 5.2 0.4 10.9 0 5.6 0 11.8 0.4 5.7 0.4 11.9 0 8.8-0.4 17 0 7.8-0.8 16-2.7 25.8-12.9 44.4-9.8 18.6-25.4 29.9-9.8 6.7-22.3 12.4-12.2 5.7-23.1 5.7h11.7q5.9 0 12.1 0.5 6.7 0 13.3 1 10.6-4.1 19.6-10.8zm152.3-104.8v-4.1q0-30.4 0.4-55.2 0.4-24.8 0.4-48.5 0.3-23.8 0.7-48.5 0.8-24.8 1.6-55.2 0.4-15.5 3.1-27.9 3.2-12.4 7.1-23.7 4.3-11.9 9.4-23.3 5.1-11.8 9.8-25.8-8.3-2-11.8 4.7-3.1 6.2-6.6 10.8l-1.2 3.1q-3.9 8.8-6.3 15.5-4.3 10.3-7 21.7-2.4 11.3-2.4 24.7 0 45.4-1.5 79.5-1.6 34.1-1.6 71.7v54.2q0 7.8 1.2 14.5 1.5 6.2 2.3 8.2l-0.4-0.5q0.8 1 1.2 2.1 0.8 1 1.6 2zm-88.9-112.5h-42.6q0-9.8-0.8-22.7-0.4-12.9 0.8-32 12.1 3.7 22.3 4.2 10.5 0.5 20.3-6.2 0 12.9 0 21.7 0.4 8.2 0.4 14.4v10.3q0 2.6 0 5.2 0 2.6-0.4 5.1zm-172.6 375.2q19.2 5.7 51.3 5.7 14.1 0 34.4-1.6 20.8-1.5 39.6-7.7 18.7-6.2 32.1-18.6 13.7-12.4 13.7-34.5 0-3.1-1.2-7.8-0.8-5.1-2-9.3-0.8-4.1-1.9-5.7-0.8-1.5-0.8 2.1-0.4 27.9-16.1 43.4-15.2 15.4-37.1 22.2-20 6.7-41.1 8.2-21.2 1.6-35.3 1.6-19.9 0-34.4-2.1-14.1-2.1-24.7-5.2 9.4 4.7 23.5 9.3zm-29-57.8l0.4-0.5q9.8-6.7 21.6-13.9 12.1-7.3 24.2-12.9 12.2-5.7 23.5-9.3 11.8-3.6 20.8-3.6h50.1q5 0 11.7 1.5-12.1-9.3-27.4-9.3h-50.1q-9 0-20.7 4.2-11.4 3.6-23.5 9.2-12.2 5.7-23.9 12.9-11.4 7.3-20.4 14.5 0.8 0 1.2 0.5h-0.4q5.5 2.6 12.9 6.7zm273.2-78.9l66.6-110-6.7-5.6h-5.1l-64.9 107.3q2.7 2.6 5.1 5.2 2.3 2 5 3.1zm-252.8-370.6q-0.8 0-2 1.1-1.1 0.5-1.9 0.5-16.1 0-25.5-10.3-9.4-10.9-14.8-24.3-5.1-13.9-8.3-26.8-2.7-12.9-5.8-17.6 11.7-0.5 17.2 7.2 5.9 7.3 10.6 19.1 5.1 11.4 11.3 25.3 6.7 13.4 19.2 25.8zm-32.5 310.2q-4.3-0.5-10.2-0.5-5.8-0.5-12.9-0.5-13.3 0-20.7 1.5-7.5 1-13.3 4.6-5.9 3.1-12.6 8.8-6.2 5.2-18 13.4 9-15.4 16.5-24.2 7.4-9.3 14.5-13.4 7-4.2 13.7-5.2 7-1 14.8-1 10.6 0 17.3 1.5 7 1.6 12.5 5.2 5.5 3.1 10.5 8.2 5.5 4.7 12.6 10.9-15.7-8.3-24.7-9.3zm-65.7 84.1v-0.5q0-22.7 16.4-35.1 16.4-12.9 41.5-12.9 22.3 0 36.8 7.2 14.8 7.2 31.3 11.9h0.4q3.9-1 7.4-2.1 3.9-1 8.2-2h-6.6q-15.3 0-26.6-3.1-11-3.7-21.6-8.3h0.4q-10.1-4.1-20.7-7.7-10.6-3.6-24.7-3.6-9 0-17.2 1.5-8.2 1.5-13.7 5.2l-9.8 7.7q-4.3 3.1-5.9 9.3-1.5 6.2-1.5 11.3 0 9.3 5.9 21.2zm141.6-79l14.1-4.6q9-3.1 17.6-6.7 8.7-3.6 14.9-8.3l7.1-5.1q5.8-4.2 9-17.6 3.5-13.9 5.1-22.2-9.8 22.2-34.1 36.7-23.9 14.4-52.4 21.1 5.4 4.7 18.7 6.7zm140.6 3.1q-5.9 9.8-12.6 19.1-6.2 9.3-11.3 17.1v5.6q4.7 1.6 8.2-1 3.5-2.6 7-8.2 4-5.7 8.7-13.5 4.7-8.2 11.7-17l1.6-2.1q-5.1-8.2-7.1-8.2-1.9 0-6.2 8.2zm-155.4-204.3q-1.2 1-1.6 2 0 1.1-0.4 1.6-0.8 0-8.2-1-7.1-1.1-18.4 0-11 0.5-24.7 4.6-13.7 3.6-27 13.4 17.6-18 32.9-23.2 15.3-5.7 25.8-5.7 6.7 0 10.6 2.6 4.3 2.1 11 5.7zm122.9-147.6l-3.2 85.7q2.4 1.5 6.7 1.5l2.7-80.5q-2.7-3.6-6.2-6.7zm-198.1 237.9l1.2-7.7q2.7-23.3 13.7-33.6 11.3-10.3 27.4-17.5-23.9 2.5-36 15.4-12.2 12.4-12.2 28.4 0 8.8 5.9 24.8-0.4-4.6 0-9.8zm38.4 54.7h8.2q-0.4-2.6-0.4-10.3 0-8.8 4.3-16.5 4.7-8.3 14.9-9.8v-7.8q0-1-5.1-1-13.3 0-16.8 5.1-3.6 4.7-3.6 9.8 0 1.1 0.8 7.3 1.2 5.6 2 12.4l-2 3.1h-9.4q2.8 4.1 7.1 7.7zm-74.4-258v-6.2q0-7.8 2-18.1 2.3-10.8 6.6-18.1-3.5-13.4-6.2-14.4-2.4-1-4.3 4.1-2 4.7-3.2 12.9-0.8 8.3-0.8 12.9 0 15.5 5.9 26.9zm29.4 65q9 5.1 20.3 6.7 3.5-1.6 11.8-3.6 8.2-2.1 16.8-4.1 8.6-2.1 15.3-4.2 6.6-2 6.6-4.1 0-4.1-6.6-3.1-6.3 0.5-15.3 3.6-9 2.6-18.4 5.7-9.4 2.6-14.9 2.6-11.7 0-22.3-3.1 1.6 1 3.1 2 2 1.1 3.6 1.6zm129.1-131.1q0 18.1-6.6 37.2 1.9-1.6 3.9-3.1 1.9-2.1 4.3-4.2l-0.4 0.6q2.4-2.1 3.5-3.7 1.2-2 1.2-6.2 0-6.7-1.2-16.5-0.8-9.8-1.9-16-0.8-6.2-2-4.6-0.8 1-0.8 16.5zm78.3 163.1q4.7 1.5 9 2.6 4.3 1 8.6 1.5 0-6.7-1.1-7.2-0.8-0.5-4.7-0.5h-5.1-6.7q-1.9 0-6.6-1.1v7.8 9.3q0 2 0 4.1 0 2.1 0.4 4.1v0.5h5.4q0-4.6 0-9.8 0.4-5.6 0.8-11.3zm-214.5 378.8q-3.1 5.6-7.8 13.9-4.7 8.3-5.9 10.3v5.7q9.8-8.8 15.7-19.6 5.8-10.8 0.4-15 0 1.1-2.4 4.7zm72-440.7v0.5h11.4q1.9-7.3 4.7-14-9.8 4.2-17.6 5.7 1.5 3.6 1.5 7.8zm-59.1 197.6q2 0 4.7-1.5-3.9-11.4-6.2-11.4-2 0-8.6 3.6 6.6 9.3 10.1 9.3zm72.1-53.1q-6.3 5.1-13.4 5.1-7 0-15.2 1.6 8.2-4.2 13.7-6.2 5.9-2.6 14.9-0.5zm92.7-142.5v-18.6q-0.4 6.8-0.8 13.5 0 6.2 0 11.8v23.3q0 13.4 0 26.3 0.4 12.4 0.4 24.7 0 5.7 0 11.4 0.4 5.7 0.4 11.3 0.4-5.6 0.4-11.8 0-6.2 0-11.9v-23.7q0-14-0.4-27.4 0-13.9 0-28.9zm-73.2 322.6q0.8 0 1.6 0 0.8-0.6 1.6-0.6-2.4 0-3.2 0.6zm14.1-1.6q0.8-0.5 1.2 0 0.8 0 1.6-0.5-0.8 0-1.6 0.5-0.4 0-1.2 0z"/>
</svg>