<svg version="1.2" xmlns="http://www.w3.org/2000/svg" viewBox="0 0 1640 664" width="1640" height="664">
	<style>
		.s0 { fill: #000000 } 
	</style>
	<path id="RAIN" class="s0" aria-label="RAIN"  d="m182.1 366.4v292.6h-181.3v-622.8q0-10.8 11.8-17.8 11.9-6.9 28.2-9.8 16.2-4 30.6-5 14.4-2 20-2h250.2q5.6 0 20 2 14.4 1 30.6 5 16.3 2.9 28.2 9.8 11.9 7 11.9 17.8v256.1q0 6.9-10 14.8-9.4 7.9-22.6 16.8-13.1 7.9-25 13.8-11.2 6-15.6 8.9l90.7 307.5-180.1 9.8q-2.5-8.9-10-34.6-7.5-25.7-18.2-61.2-10.6-35.6-21.9-73.2-11.2-38.5-21.2-72.2-10-34.6-16.3-56.3zm68.8-84v-211.6h-68.8v254.1q8.1-7.9 20.7-14.8 12.5-8 25.6-14.9 13.8-6.9 22.5-12.8zm418.2 108.7v267.9h-181.3v-622.8q0-10.8 11.8-17.8 11.9-6.9 28.2-9.8 16.2-4 30.6-5 14.4-2 20-2h268.9q5.7 0 20.1 2 14.3 1 30.6 5 16.3 2.9 28.1 9.8 11.9 7 11.9 17.8v622.8h-181.3v-267.9zm0-320.3v251.1h87.5v-251.1zm305.7 588.2v-657.4h181.3v657.4zm400.4-588.2v588.2h-181.4v-622.8q0-10.8 11.9-17.8 11.9-6.9 28.1-9.8 16.3-4 30.7-5 14.4-2 20-2h233.3q13.1 0 33.7 2 20.7 2 40.7 9.9 20 7.9 33.7 25.7 13.8 16.8 13.8 46.5v573.3h-181.3v-382.6q0-8.9 0-30.6 0.6-21.7 0.6-49.4 0-27.7 0-54.4 0-27.7-0.6-46.5 0-19.7-1.3-24.7z"/>
</svg>