<svg version="1.2" xmlns="http://www.w3.org/2000/svg" viewBox="0 0 1640 664" width="1640" height="664">
	<style>
		.s0 { fill: #000000 } 
	</style>
	<path id="RAIN copy" class="s0" aria-label="RAIN"  d="m174 621.7q0 6.2-10.3 19-10.3 12.3-18 12.3h-145.6q43.9-261.5 62.5-608.9 0-5.6 10.3-17.5 10.3-12.3 17.6-12.8 96.3-11.8 147-11.8-46.2 294.7-63.5 619.7zm233-181.9l-4.5 95.2q0 26.1 6.4 41.7 6.4 15.7 23.7 19.4-3.2 29.9-10.6 48.8-57.4 19.9-97.8 19.9-40.1 0-62.3-16.1-21.8-16.5-21.8-51.1 0-34.6 7.1-94.3 7.3-60.2 7.3-85.3 0-25.6-7.7-42.7-7.7-17-20.8-18.9 1.6-21.3 10.9-37.9 26.9-20.9 42-64.9 15.1-44.1 15.1-95.3 0-76.7-31.1-124.6 0-7.1 10.2-19.9 10.3-12.8 17.7-12.8 57.4 0 99.5 35.1 21.2 18 33.7 49.3 12.5 31.2 12.5 72 0 66.8-41.4 113.7-41.4 46.9-110.7 54l28.9 3.8q42.3 6.2 68 33.2 25.7 26.5 25.7 77.7zm426.2 213.2h-149.2q-25-294.7-63.2-511.7 18.6-55.9 31.7-102.4 2.3-7.1 11.6-18.9 9.6-11.9 16.4-11.9h102q13.2 143.1 35.3 318.9 22.5 175.3 43.7 294.7 0 6.2-10.3 19-10.3 12.3-18 12.3zm-256.4-99v15.1l1 52.6q0 6.2-10.6 19-10.3 12.3-17.7 12.3h-102.3q50.7-127 157.2-465.3 2.9 12.3 2.9 34.6 0 21.8-4.5 63.5-4.2 41.7-10.9 98.5-6.7 56.4-10 91.5 46.3 10.4 67.1 23.2 0 28.4-6.4 42.2-33.4 4.2-65.8 12.8zm493.5 99h-149.2q44.3-282.9 62.6-614.1 0-6.1 10.3-18.4 10.5-12.4 17.9-12.4h149.2q-44.6 280.5-62.9 613.6 0 6.2-10.2 19-10.3 12.3-17.7 12.3zm507-31.3q0 6.2-10.3 19-10.2 12.3-17.6 12.3h-82.8q-36.3-97.1-96.9-221.3-60.4-124.1-110.1-208 4.2-50.7 12.8-184.8 1-6.6 11-18.4 10.2-12.4 17-12.4h83.7q42.7 110.9 91.2 209.9 48.7 99.1 113.6 216.1-8.4 113.7-11.6 187.6zm-5.5-270.5q-15.4-117.1-28.2-183.9-12.5-67.2-34-128.4 0-6.1 10.3-18.4 10.6-12.4 18.3-12.4h102q-21.5 137-40.1 311.3 0 6.7-10.3 19.5-10.3 12.3-18 12.3zm-294.9-35.1q8.4 99.5 22.8 166.8 14.5 66.8 40.1 138.8 0 6.2-10.2 19-10.3 12.3-18 12.3h-102.1q21.5-137.9 39.2-305.6 0-6.2 10.3-18.5 10.6-12.8 17.9-12.8z"/>
</svg>