<svg version="1.2" xmlns="http://www.w3.org/2000/svg" viewBox="0 0 1640 664" width="1640" height="664">
	<style>
		.s0 { fill: #000000 } 
	</style>
	<path id="RAIN" class="s0" aria-label="RAIN"  d="m404.4 661.1q-30.4 0-52.5-20.5-21.5-20.4-39.4-53-17.3-33.4-35.2-68.8-17.9-37.1-34.6-71.5-16.1-34.4-37.6-55.8-21.5-22.3-55.5-22.3h-21.5v198q0 28.8 6.6 38.1 7.2 9.3 31.6 16.7l36.4 10.3v16.7h-202.8v-16.7l36.4-10.3q24.4-7.4 31-16.7 7.1-9.3 7.1-38.1v-462.1q0-29.7-7.1-39-6.6-9.3-31-15.8l-36.4-10.3v-16.7h167q80.6 0 124.1 47.4 43.6 46.5 43.6 125.5 0 42.8-14.9 76.3-15 32.5-40 53-24.5 19.5-53.7 25.1v2.8q27.4 0 46.5 22.3 19.1 21.4 34 54.8 15.5 33.5 31.7 70.7 15.5 34.4 31 66 15.5 30.7 31.6 50.2 16.7 19.5 34 19.5v16.7q-14.3 7.5-30.4 7.5zm-276.3-616.4v298.4h38.8q35.2 0 59.1-17.6 24.4-17.7 37-49.3 13.1-32.6 13.1-76.2 0-76.3-31.6-115.3-31-40-85.3-40zm466.1 604.3h-153.3v-16.7l28-7.5q20.3-5.6 31.1-17.6 10.7-13.1 16.7-36.3l121.1-461.1-12.5-51.2q12.5-0.9 20.8-11.1 8.4-11.2 12.6-24.2 4.2-13.9 4.2-23.2h5.3l145.6 549.4q10.7 40.9 22.1 55.8 11.9 13.9 30.4 19.5l23.9 7.5v16.7h-196.3v-16.7l32.2-8.4q19.1-4.7 26.2-11.2 7.2-6.5 7.2-17.6 0-7.5-2.4-17.7-2.4-10.2-5.3-23.2l-109.2-429.6h13.7l-118.7 448.2q-1.8 6.5-3 13-1.2 5.6-1.2 10.2 0 11.2 5.4 16.7 5.9 5.6 16.7 8.4l38.7 11.2zm149.8-212.9h-170.6l-4.2-29.8h174.8zm375.6 212.9h-202.8v-16.7l36.4-10.2q24.4-7.5 31-16.8 7.2-9.3 7.2-38.1v-462.1q0-29.7-7.2-39-6.6-9.3-31-15.8l-36.4-10.2v-16.8h202.8v16.8l-36.4 10.2q-24.4 6.5-31.6 15.8-6.5 9.3-6.5 39v462.1q0 28.8 6.5 38.1 7.2 9.3 31.6 16.8l36.4 10.2zm445.5 14.9h-5.9l-298.9-531.8v428.6q0 28.8 6.5 41.8 7.2 12.1 31.7 19.5l36.3 10.2v16.8h-166.4v-16.8l36.4-10.2q24.4-7.4 31-18.6 7.2-11.1 7.2-40v-451.8q0-21.4-2.4-32.5-2.4-12.1-12.6-18.6-9.5-6.5-32.2-13l-28-8.4v-15.8h102l278.6 483.4-0.6-395.1q0-29.7-7.1-41.8-6.6-13-31-19.5l-36.4-10.3v-16.7h166.4v16.7l-36.4 10.3q-24.4 6.5-31.6 17.6-6.6 11.2-6.6 40.9z"/>
</svg>