<svg version="1.2" xmlns="http://www.w3.org/2000/svg" viewBox="0 0 1640 664" width="1640" height="664">
	<style>
		.s0 { fill: #000000 } 
	</style>
	<path id="RAIN" class="s0" aria-label="RAIN"  d="m239.3 156c0-71.4 0-78 0-78 0-26.5-52.9-74.1-119.4-74.1-65.6 0-119.3 47.6-119.3 74.1 0 0 0 6.6 0 78 0 70.1 82.7 128.2 82.7 178.5 0 50.2-82.7 108.4-82.7 179.8 0 70 0 76.7 0 76.7 0 26.4 53.7 74 119.3 74 66.5 0 119.4-47.6 119.4-74 0 0 0-6.7 0-76.7 0-71.4-82.7-129.6-82.7-179.8 0-50.3 82.7-108.4 82.7-178.5zm-205.4-75.4c14.4-14.5 42.6-35.7 87.7-35.7 45.2 0 85.3 35.7 85.3 35.7 2.5 2.7 14.5 13.2 6.8 21.2-17.9 15.8-52.8 33-93.8 33-40 0-74.1-18.5-92-35.7-7.7-6.6 6-18.5 6-18.5zm97.1 253.9c0 39.6 21.3 64.8 43.5 99.1 16.2 23.8 39.2 58.2 39.2 80.7v43.6c-20.5-15.9-82.7-31.7-82.7-83.3 0-25.1-21.3-25.1-21.3 0 0 51.6-62.2 67.4-82.7 83.3v-43.6c0-22.5 22.2-56.9 38.4-80.7 23-34.3 44.3-59.5 44.3-99.1 0-39.7-21.3-64.8-44.3-99.2-16.2-23.8-38.4-58.2-38.4-79.3l-0.8-33.1c21.3 17.2 56.2 34.4 93.7 34.4 38.4 0 72.5-17.2 94.6-34.4l-0.8 33.1c0 21.1-23 55.5-39.2 79.3-22.2 34.4-43.5 59.5-43.5 99.2zm537.1-235.4c-34.9-55.5-80.1-75.3-94.6-52.9l-57.1 88.6c-8.5 13.2-16.2 59.5-12.8 104.5l-173.9 269.7c-10.2 15.9-2.5 55.5 18.8 87.2 20.4 31.8 45.2 45 55.4 29.1l173.9-269.7c29.8 5.3 58.8-6.6 67.3-19.8l57.9-89.9c14.5-21.2 0.9-91.2-34.9-146.8zm-190.9 269.7c-7.7-11.9-5.1-35.7 5.9-52.8 11.1-17.2 26.5-21.2 34.1-9.3 8.6 11.9 6 35.7-5.1 52.9-11.9 17.2-27.2 21.1-34.9 9.2zm144-195.6c-28.1-43.7-34.9-99.2-32.4-103.2 2.6-3.9 37.5 9.3 65.7 51.6 27.2 42.3 35.8 97.8 33.2 100.5-2.6 4-39.2-6.6-66.5-48.9zm529.5-47.6c-6.8-9.3-40.9-48.9-46.8-58.2-6.9-7.9-17.1-10.6-23.9-10.6h-205.4c-6.8 0-17.1 2.7-23 10.6-6.8 9.3-40.9 48.9-46.9 58.2-6.8 7.9-11.9 21.1-10.2 39.6 1.7 17.2 40.9 428.4 40.9 428.4 2.5 10.6 10.2 18.5 17 18.5h249.8c6.8 0 14.4-7.9 17-18.5 0 0 39.2-411.2 40.9-428.4 1.7-18.5-3.4-31.7-9.4-39.6zm-173 286.9c-69.9 0-84.4-152.1-87.8-182.5h39.2c6 45 19.6 123 48.6 123 28.1 0 41.8-78 47.7-123h39.3c-3.5 30.4-17.9 182.5-87 182.5zm-150-243.3l46.9-75.4h205.4l47.7 75.4zm615-138.8c-108.3 0-196.1 136.2-196.1 304.1 0 167.9 87.8 304.1 196.1 304.1 108.2 0 196-136.2 196-304.1 0-167.9-87.8-304.1-196-304.1zm0 542.1c-85.3 0-153.4-107.1-153.4-238 0-130.9 68.1-238 153.4-238 84.3 0 153.4 107.1 153.4 238 0 130.9-69.1 238-153.4 238zm14.5-409.9h-29.9v181.1l72.5 112.4 21.3-31.7-63.9-99.2z"/>
</svg>