<svg width="130" height="130" viewBox="0 0 130 130" fill="none" xmlns="http://www.w3.org/2000/svg">
<rect width="130" height="130" rx="21" fill="black"/>
<path d="M36.9972 69V22.4545H54.4517C58.0275 22.4545 61.0275 23.1212 63.4517 24.4545C65.8911 25.7879 67.732 27.6212 68.9744 29.9545C70.232 32.2727 70.8608 34.9091 70.8608 37.8636C70.8608 40.8485 70.232 43.5 68.9744 45.8182C67.7169 48.1364 65.8608 49.9621 63.4062 51.2955C60.9517 52.6136 57.929 53.2727 54.3381 53.2727H42.7699V46.3409H53.2017C55.2926 46.3409 57.0047 45.9773 58.3381 45.25C59.6714 44.5227 60.6563 43.5227 61.2926 42.25C61.9441 40.9773 62.2699 39.5152 62.2699 37.8636C62.2699 36.2121 61.9441 34.7576 61.2926 33.5C60.6563 32.2424 59.6638 31.2652 58.3153 30.5682C56.982 29.8561 55.2623 29.5 53.1562 29.5H45.429V69H36.9972Z" fill="white"/>
<path d="M89.1165 75.3182C88.7377 74.0909 88.215 72.9924 87.5483 72.0227C86.8968 71.0379 86.1089 70.197 85.1847 69.5C84.2756 68.803 83.2301 68.2803 82.0483 67.9318C80.8665 67.5682 79.5786 67.3864 78.1847 67.3864C75.6847 67.3864 73.4574 68.0152 71.5028 69.2727C69.5483 70.5303 68.0104 72.3788 66.8892 74.8182C65.7831 77.2424 65.2301 80.197 65.2301 83.6818C65.2301 87.197 65.7831 90.1742 66.8892 92.6136C67.9953 95.053 69.5331 96.9091 71.5028 98.1818C73.4725 99.4394 75.7604 100.068 78.3665 100.068C80.7301 100.068 82.7756 99.6136 84.5028 98.7045C86.2453 97.7955 87.5862 96.5076 88.5256 94.8409C89.465 93.1591 89.9347 91.1894 89.9347 88.9318L91.8438 89.2273H79.2074V82.6364H98.0938V88.2273C98.0938 92.2121 97.2453 95.6591 95.5483 98.5682C93.8513 101.477 91.518 103.72 88.5483 105.295C85.5786 106.856 82.1695 107.636 78.321 107.636C74.0331 107.636 70.268 106.674 67.0256 104.75C63.7983 102.811 61.2756 100.061 59.4574 96.5C57.6544 92.9242 56.7528 88.6818 56.7528 83.7727C56.7528 80.0152 57.2831 76.6591 58.3438 73.7045C59.4195 70.75 60.9195 68.2424 62.8438 66.1818C64.768 64.1061 67.0256 62.5303 69.6165 61.4545C72.2074 60.3636 75.0256 59.8182 78.071 59.8182C80.6468 59.8182 83.0483 60.197 85.2756 60.9545C87.5028 61.697 89.4801 62.7576 91.2074 64.1364C92.9498 65.5152 94.3816 67.1515 95.5028 69.0455C96.6241 70.9394 97.3589 73.0303 97.7074 75.3182H89.1165Z" fill="white"/>
</svg>
